# xmcd
#
# Track frame offsets:
#	150
#	14543
#	31272
#	46335
#	62385
#	76407
#	94412
#	110404
#	127173
#	141491
#	155884
#	172613
#	187676
#	203726
#	217748
#	235753
#	251745
#	268514
#
# Disc length: 3769 seconds
#
# Revision: 1
# Processed by: cddbd v1.5.1PL2 Copyright (c) Steve Scherf et al.
# Submitted via: audiograbber 1.83.01
#
DISCID=f20eb712
DTITLE=Top Tunes - ttm029
DYEAR=1900
DGENRE=
TTITLE0=Vassar, Phil - American Child
TTITLE1=Diamond Rio - Beautiful Mess
TTITLE2=Azar, Steve - I Don't Have To Be Me Until Monday
TTITLE3=Worley, Darryl - I Miss My Friend
TTITLE4=Emerson Drive - I Should Be Sleeping
TTITLE5=Nichols, Joe - Impossible
TTITLE6=Trick Pony - Just What I Do
TTITLE7=Shelton, Blake - Ol Red
TTITLE8=Griggs, Andy - Tonight I want To Be Your Man
TTITLE9=Vassar, Phil - American Child (Vocal)
TTITLE10=Diamond Rio - Beautiful Mess (Vocal)
TTITLE11=Azar, Steve - I Don't Have To Be Me Until Monday (Vocal)
TTITLE12=Worley, Darryl - I Miss My Friend (Vocal)
TTITLE13=Emerson Drive - I Should Be Sleeping (Vocal)
TTITLE14=Nichols, Joe - Impossible (Vocal)
TTITLE15=Trick Pony - Just What I Do (Vocal)
TTITLE16=Shelton, Blake - Ol Red (Vocal)
TTITLE17=Griggs, Andy - Tonight I Want To Be Your Man (Vocal)
EXTD=
EXTT0=
EXTT1=
EXTT2=
EXTT3=
EXTT4=
EXTT5=
EXTT6=
EXTT7=
EXTT8=
EXTT9=
EXTT10=
EXTT11=
EXTT12=
EXTT13=
EXTT14=
EXTT15=
EXTT16=
EXTT17=
PLAYORDER=
